<svg width="49" height="49" viewBox="0 0 49 49" fill="none" xmlns="http://www.w3.org/2000/svg">
<path d="M48.8248 34.6714C48.8248 43.3861 43.5973 48.5814 34.8284 48.5814H31.9617C30.6368 48.5814 29.5527 47.504 29.5527 46.1872V32.373C29.5527 31.7266 30.0827 31.176 30.7331 31.176L34.973 31.1041C35.3102 31.0802 35.5993 30.8408 35.6716 30.5056L36.5147 25.9328C36.587 25.5018 36.2498 25.0948 35.792 25.0948L30.6608 25.1667C29.9863 25.1667 29.4563 24.6399 29.4322 23.9935L29.3359 18.1279C29.3359 17.7448 29.6491 17.4096 30.0586 17.4096L35.8402 17.3139C36.2498 17.3139 36.5629 17.0026 36.5629 16.5956L36.4666 10.8496C36.4666 10.4426 36.1534 10.1314 35.7439 10.1314L29.2395 10.2272C25.2406 10.299 22.0607 13.555 22.1329 17.5293L22.2534 24.1132C22.2775 24.7836 21.7475 25.3103 21.073 25.3342L18.1822 25.3821C17.7726 25.3821 17.4595 25.6934 17.4595 26.1004L17.5317 30.6492C17.5317 31.0562 17.8449 31.3675 18.2544 31.3675L21.1452 31.3196C21.8198 31.3196 22.3497 31.8463 22.3738 32.4927L22.5906 46.1394C22.6147 47.4801 21.5307 48.5814 20.1816 48.5814H14.6409C5.87209 48.5814 0.644531 43.3861 0.644531 34.6475V14.6085C0.644531 5.89378 5.87209 0.698486 14.6409 0.698486H34.8284C43.5973 0.698486 48.8248 5.89378 48.8248 14.6085V34.6714Z" fill="black"/>
</svg>
