<svg width="49" height="50" viewBox="0 0 49 50" fill="none" xmlns="http://www.w3.org/2000/svg">
<g clip-path="url(#clip0_353_466)">
<path d="M24.3856 18.6854C23.2255 18.6854 22.0914 19.0336 21.1268 19.686C20.1622 20.3385 19.4103 21.2658 18.9664 22.3507C18.5224 23.4356 18.4063 24.6295 18.6326 25.7812C18.8589 26.933 19.4176 27.9909 20.2379 28.8213C21.0583 29.6517 22.1034 30.2172 23.2413 30.4463C24.3791 30.6754 25.5585 30.5578 26.6304 30.1084C27.7022 29.659 28.6183 28.898 29.2628 27.9216C29.9074 26.9452 30.2514 25.7972 30.2514 24.6229C30.2514 23.8432 30.0997 23.0711 29.8049 22.3507C29.5101 21.6303 29.078 20.9758 28.5333 20.4244C27.9887 19.8731 27.342 19.4357 26.6304 19.1374C25.9187 18.839 25.1559 18.6854 24.3856 18.6854ZM47.8723 12.8197C47.8598 10.9709 47.5235 9.1389 46.8789 7.40895C46.4042 6.14307 45.6696 4.99348 44.7237 4.03604C43.7779 3.0786 42.6422 2.33508 41.3916 1.85453C39.6825 1.20204 37.8727 0.861582 36.0462 0.848987C32.995 0.681396 32.0963 0.681396 24.3856 0.681396C16.675 0.681396 15.7762 0.681396 12.7251 0.848987C10.8986 0.861582 9.08872 1.20204 7.37967 1.85453C6.12909 2.33508 4.99339 3.0786 4.04751 4.03604C3.10164 4.99348 2.3671 6.14307 1.89236 7.40895C1.24775 9.1389 0.911407 10.9709 0.898964 12.8197C0.733398 15.9082 0.733398 16.818 0.733398 24.6229C0.733398 32.4278 0.733398 33.3376 0.898964 36.426C0.924423 38.2814 1.26031 40.119 1.89236 41.8607C2.365 43.1208 3.09893 44.2638 4.04471 45.2126C4.98653 46.1757 6.12466 46.9193 7.37967 47.3912C9.08872 48.0437 10.8986 48.3842 12.7251 48.3968C15.7762 48.5644 16.675 48.5644 24.3856 48.5644C32.0963 48.5644 32.995 48.5644 36.0462 48.3968C37.8727 48.3842 39.6825 48.0437 41.3916 47.3912C42.6466 46.9193 43.7847 46.1757 44.7265 45.2126C45.6723 44.2638 46.4063 43.1208 46.8789 41.8607C47.5229 40.1223 47.8592 38.2826 47.8723 36.426C48.0379 33.3376 48.0379 32.4278 48.0379 24.6229C48.0379 16.818 48.0379 15.9082 47.8723 12.8197ZM41.8646 31.9729C41.7887 33.4504 41.4772 34.9056 40.9422 36.2824C40.483 37.4308 39.8004 38.4741 38.9349 39.3501C38.0695 40.2262 37.0388 40.9171 35.9043 41.3819C34.5313 41.8933 33.0856 42.1763 31.6232 42.2199C29.7547 42.2199 29.258 42.2199 24.3856 42.2199C19.5133 42.2199 19.0166 42.2199 17.148 42.2199C15.6857 42.1763 14.24 41.8933 12.867 41.3819C11.6941 40.9407 10.6349 40.2369 9.76855 39.3229C8.91155 38.4641 8.24971 37.4265 7.82907 36.2824C7.32186 34.8941 7.04998 33.429 7.02489 31.949C7.02489 30.0576 7.02489 29.5548 7.02489 24.6229C7.02489 19.6909 7.02489 19.1882 7.02489 17.2968C7.04998 15.8168 7.32186 14.3517 7.82907 12.9634C8.26493 11.7761 8.96029 10.704 9.86316 9.82704C10.7154 8.96425 11.7394 8.29501 12.867 7.86384C14.24 7.35247 15.6857 7.06949 17.148 7.02589C19.0166 7.02589 19.5133 7.02589 24.3856 7.02589C29.258 7.02589 29.7547 7.02589 31.6232 7.02589C33.0856 7.06949 34.5313 7.35247 35.9043 7.86384C37.0772 8.30504 38.1364 9.0089 39.0027 9.92281C39.8597 10.7817 40.5215 11.8193 40.9422 12.9634C41.4474 14.3532 41.7269 15.8166 41.77 17.2968C41.77 19.1882 41.77 19.6909 41.77 24.6229C41.77 29.5548 41.9356 30.0576 41.8646 31.949V31.9729ZM38.0803 14.1605C37.7987 13.3871 37.3547 12.6848 36.7789 12.102C36.2031 11.5192 35.5093 11.0698 34.7453 10.7847C33.6963 10.4166 32.5914 10.2383 31.4813 10.258C29.6364 10.258 29.1161 10.258 24.3856 10.258C19.6552 10.258 19.1348 10.258 17.29 10.258C16.1742 10.269 15.0692 10.4798 14.026 10.8805C13.2736 11.1526 12.5872 11.5837 12.0122 12.1451C11.4372 12.7065 10.9868 13.3853 10.691 14.1365C10.3475 15.2028 10.1797 16.319 10.1943 17.4404C10.1943 19.3079 10.1943 19.8346 10.1943 24.6229C10.1943 29.4112 10.1943 29.9379 10.1943 31.8053C10.2177 32.9334 10.4255 34.0498 10.8092 35.1092C11.0909 35.8826 11.5349 36.5849 12.1106 37.1677C12.6864 37.7505 13.3802 38.1999 14.1442 38.485C15.1534 38.8607 16.2153 39.0708 17.29 39.1075C19.1348 39.1075 19.6552 39.1075 24.3856 39.1075C29.1161 39.1075 29.6364 39.1075 31.4813 39.1075C32.597 39.0964 33.7021 38.8857 34.7453 38.485C35.5093 38.1999 36.2031 37.7505 36.7789 37.1677C37.3547 36.5849 37.7987 35.8826 38.0803 35.1092C38.4761 34.0533 38.6843 32.9347 38.6952 31.8053C38.6952 29.9379 38.6952 29.4112 38.6952 24.6229C38.6952 19.8346 38.6952 19.3079 38.6952 17.4404C38.6959 16.3099 38.4873 15.1893 38.0803 14.1365V14.1605ZM24.3856 33.7685C23.2002 33.7685 22.0265 33.5318 20.9316 33.0719C19.8367 32.612 18.8423 31.9379 18.0052 31.0884C17.1681 30.2388 16.5048 29.2304 16.0533 28.121C15.6018 27.0115 15.371 25.8228 15.3741 24.6229C15.3741 22.813 15.9046 21.0439 16.8985 19.5394C17.8923 18.0348 19.3048 16.8626 20.9572 16.1711C22.6095 15.4796 24.4274 15.2999 26.1807 15.6548C27.934 16.0096 29.5438 16.883 30.8065 18.1644C32.0691 19.4459 32.9277 21.0777 33.2737 22.8534C33.6196 24.629 33.4373 26.4687 32.7499 28.1394C32.0624 29.8101 30.9006 31.2368 29.4117 32.2389C27.9228 33.2409 26.1736 33.7733 24.3856 33.7685ZM33.8465 17.2728C33.3237 17.2168 32.8398 16.9669 32.4881 16.5713C32.1365 16.1757 31.9419 15.6623 31.9419 15.1301C31.9419 14.5979 32.1365 14.0845 32.4881 13.6889C32.8398 13.2932 33.3237 13.0433 33.8465 12.9873C34.3694 13.0433 34.8532 13.2932 35.2049 13.6889C35.5566 14.0845 35.7511 14.5979 35.7511 15.1301C35.7511 15.6623 35.5566 16.1757 35.2049 16.5713C34.8532 16.9669 34.3694 17.2168 33.8465 17.2728Z" fill="black"/>
</g>
<defs>
<clipPath id="clip0_353_466">
<rect width="48.269" height="48.269" fill="white" transform="translate(0.644531 0.786621)"/>
</clipPath>
</defs>
</svg>
