<svg width="23" height="23" viewBox="0 0 23 23" fill="none" xmlns="http://www.w3.org/2000/svg">
<mask id="path-1-inside-1_353_334" fill="white">
<path d="M16.8008 14.0205C17.6992 12.607 18.2263 10.9299 18.2263 9.12702C18.2263 4.08978 14.1474 0.00488281 9.11615 0.00488281C4.07891 0.00488281 0 4.08978 0 9.12702C0 14.1643 4.07891 18.2492 9.11016 18.2492C10.937 18.2492 12.638 17.7101 14.0635 16.7877L14.4768 16.5002L20.9815 23.0049L23 20.9505L16.5013 14.4458L16.8008 14.0205ZM14.2193 4.02988C15.5789 5.38952 16.3276 7.19837 16.3276 9.12103C16.3276 11.0437 15.5789 12.8525 14.2193 14.2122C12.8596 15.5718 11.0508 16.3205 9.12813 16.3205C7.20547 16.3205 5.39661 15.5718 4.03698 14.2122C2.67734 12.8525 1.92865 11.0437 1.92865 9.12103C1.92865 7.19837 2.67734 5.38952 4.03698 4.02988C5.39661 2.67025 7.20547 1.92155 9.12813 1.92155C11.0508 1.92155 12.8596 2.67025 14.2193 4.02988Z"/>
</mask>
<path d="M16.8008 14.0205C17.6992 12.607 18.2263 10.9299 18.2263 9.12702C18.2263 4.08978 14.1474 0.00488281 9.11615 0.00488281C4.07891 0.00488281 0 4.08978 0 9.12702C0 14.1643 4.07891 18.2492 9.11016 18.2492C10.937 18.2492 12.638 17.7101 14.0635 16.7877L14.4768 16.5002L20.9815 23.0049L23 20.9505L16.5013 14.4458L16.8008 14.0205ZM14.2193 4.02988C15.5789 5.38952 16.3276 7.19837 16.3276 9.12103C16.3276 11.0437 15.5789 12.8525 14.2193 14.2122C12.8596 15.5718 11.0508 16.3205 9.12813 16.3205C7.20547 16.3205 5.39661 15.5718 4.03698 14.2122C2.67734 12.8525 1.92865 11.0437 1.92865 9.12103C1.92865 7.19837 2.67734 5.38952 4.03698 4.02988C5.39661 2.67025 7.20547 1.92155 9.12813 1.92155C11.0508 1.92155 12.8596 2.67025 14.2193 4.02988Z" fill="black"/>
<path d="M16.8008 14.0205L44.0516 33.2112L44.5063 32.5655L44.9298 31.8991L16.8008 14.0205ZM14.0635 16.7877L32.1701 44.7706L32.6389 44.4673L33.0972 44.1484L14.0635 16.7877ZM14.4768 16.5002L38.0447 -7.06767L18.3303 -26.7821L-4.55682 -10.8605L14.4768 16.5002ZM20.9815 23.0049L-2.58636 46.5728L21.1904 70.3495L44.7564 46.3639L20.9815 23.0049ZM23 20.9505L46.7749 44.3095L69.9181 20.7543L46.5787 -2.60655L23 20.9505ZM16.5013 14.4458L-10.7495 -4.74487L-26.8889 18.1731L-7.07742 38.0028L16.5013 14.4458ZM44.9298 31.8991C49.0804 25.3689 51.5563 17.527 51.5563 9.12702H-15.1037C-15.1037 4.33277 -13.682 -0.154919 -11.3283 -3.85813L44.9298 31.8991ZM51.5563 9.12702C51.5563 -14.2751 32.5978 -33.3251 9.11615 -33.3251V33.3349C-4.30302 33.3349 -15.1037 22.4546 -15.1037 9.12702H51.5563ZM9.11615 -33.3251C-14.3573 -33.3251 -33.33 -14.2893 -33.33 9.12702H33.33C33.33 22.4689 22.5151 33.3349 9.11615 33.3349V-33.3251ZM-33.33 9.12702C-33.33 32.5291 -14.3715 51.5792 9.11016 51.5792V-15.0808C22.5293 -15.0808 33.33 -4.2006 33.33 9.12702H-33.33ZM9.11016 51.5792C17.5861 51.5792 25.5421 49.0593 32.1701 44.7706L-4.04303 -11.1952C-0.26604 -13.6391 4.28788 -15.0808 9.11016 -15.0808V51.5792ZM33.0972 44.1484L33.5105 43.8609L-4.55682 -10.8605L-4.97011 -10.573L33.0972 44.1484ZM-9.09105 40.0681L-2.58636 46.5728L44.5494 -0.562984L38.0447 -7.06767L-9.09105 40.0681ZM44.7564 46.3639L46.7749 44.3095L-0.77489 -2.40856L-2.79338 -0.354133L44.7564 46.3639ZM46.5787 -2.60655L40.08 -9.11124L-7.07742 38.0028L-0.578724 44.5075L46.5787 -2.60655ZM43.7521 33.6364L44.0516 33.2112L-10.4501 -5.17014L-10.7495 -4.74487L43.7521 33.6364ZM-9.3486 27.5978C-14.2439 22.7024 -17.0024 16.0319 -17.0024 9.12103H49.6576C49.6576 -1.63511 45.4017 -11.9234 37.7871 -19.538L-9.3486 27.5978ZM-17.0024 9.12103C-17.0024 2.2102 -14.2439 -4.46037 -9.3486 -9.35569L37.7871 37.78C45.4017 30.1655 49.6576 19.8772 49.6576 9.12103H-17.0024ZM-9.3486 -9.35569C-4.45325 -14.251 2.21734 -17.0095 9.12813 -17.0095V49.6505C19.8842 49.6505 30.1725 45.3947 37.7871 37.78L-9.3486 -9.35569ZM9.12813 -17.0095C16.0389 -17.0095 22.7095 -14.251 27.6048 -9.35569L-19.5309 37.78C-11.9163 45.3947 -1.62797 49.6505 9.12813 49.6505V-17.0095ZM27.6048 -9.35569C32.5002 -4.46035 35.2586 2.21023 35.2586 9.12103H-31.4014C-31.4014 19.8771 -27.1455 30.1654 -19.5309 37.78L27.6048 -9.35569ZM35.2586 9.12103C35.2586 16.0318 32.5002 22.7024 27.6048 27.5978L-19.5309 -19.538C-27.1455 -11.9234 -31.4014 -1.63509 -31.4014 9.12103H35.2586ZM27.6048 27.5978C22.7095 32.4931 16.0389 35.2516 9.12813 35.2516V-31.4085C-1.62799 -31.4085 -11.9163 -27.1526 -19.5309 -19.538L27.6048 27.5978ZM9.12813 35.2516C2.21732 35.2516 -4.45326 32.4931 -9.3486 27.5978L37.7871 -19.538C30.1725 -27.1526 19.8842 -31.4085 9.12813 -31.4085V35.2516Z" fill="black" mask="url(#path-1-inside-1_353_334)"/>
</svg>
