<svg width="50" height="49" viewBox="0 0 50 49" fill="none" xmlns="http://www.w3.org/2000/svg">
<g clip-path="url(#clip0_353_470)">
<mask id="mask0_353_470" style="mask-type:luminance" maskUnits="userSpaceOnUse" x="0" y="0" width="50" height="49">
<path d="M49.3608 0.689209H0.644531V48.204H49.3608V0.689209Z" fill="white"/>
</mask>
<g mask="url(#mask0_353_470)">
<path d="M43.6519 0.689209H6.35347C3.20051 0.689209 0.644531 3.18215 0.644531 6.25735V42.6359C0.644531 45.7111 3.20051 48.204 6.35347 48.204H43.6519C46.8048 48.204 49.3608 45.7111 49.3608 42.6359V6.25735C49.3608 3.18215 46.8048 0.689209 43.6519 0.689209Z" fill="black"/>
<path d="M34.5083 9.96948H39.5444L28.5421 22.2342L41.4854 38.9238H31.3509L23.4132 28.8017L14.3306 38.9238H9.2916L21.0596 25.8053L8.64307 9.96948H19.0348L26.2098 19.2215L34.5083 9.96948ZM32.7408 35.9838H35.5314L17.5185 12.755H14.524L32.7408 35.9838Z" fill="white"/>
</g>
</g>
<defs>
<clipPath id="clip0_353_470">
<rect width="48.7163" height="47.5148" fill="white" transform="translate(0.644531 0.689209)"/>
</clipPath>
</defs>
</svg>
